<svg xmlns="http://www.w3.org/2000/svg" viewBox="0 0 1400 900" width="1400" height="900" font-family="Inter, 'Segoe UI', Arial, Helvetica, sans-serif">
<defs>
  <style>
    .h1{font-size:20px;font-weight:700;fill:#F8FAFC;letter-spacing:.3px}
    .h2{font-size:9.5px;font-weight:500;fill:#64748B;letter-spacing:2.5px}
    .zt{font-size:10px;font-weight:700;fill:#0F172A}
    .zn{font-size:8px;font-weight:700;fill:#FFF}
    .sl{font-size:7.5px;font-weight:700;letter-spacing:.8px}
    .sb{font-size:9px;font-weight:600;fill:#1E293B}
    .bt{font-size:8.5px;fill:#334155}
    .bi{font-size:7.5px;fill:#64748B;font-style:italic;font-weight:500}
    .tl{font-size:7.5px;fill:#94A3B8;font-style:italic;font-weight:500}
    .pill{font-size:8px;font-weight:600}
  </style>
  <marker id="arr" markerWidth="8" markerHeight="6" refX="7" refY="3" orient="auto">
    <path d="M1,1 L6,3 L1,5" fill="none" stroke="#94A3B8" stroke-width="1.2" stroke-linecap="round" stroke-linejoin="round"/>
  </marker>
  <filter id="ds"><feDropShadow dx="0" dy="2" stdDeviation="3" flood-opacity=".05"/></filter>
  <linearGradient id="tg" x1="0" y1="0" x2="1" y2="0">
    <stop offset="0%" stop-color="#0F172A"/><stop offset="100%" stop-color="#1E293B"/>
  </linearGradient>
  <clipPath id="c1"><rect x="20"   y="82" width="182" height="612" rx="10"/></clipPath>
  <clipPath id="c2"><rect x="216"  y="82" width="182" height="612" rx="10"/></clipPath>
  <clipPath id="c3"><rect x="412"  y="82" width="182" height="612" rx="10"/></clipPath>
  <clipPath id="c4"><rect x="608"  y="82" width="182" height="612" rx="10"/></clipPath>
  <clipPath id="c5"><rect x="804"  y="82" width="182" height="612" rx="10"/></clipPath>
  <clipPath id="c6"><rect x="1000" y="82" width="182" height="612" rx="10"/></clipPath>
  <clipPath id="c7"><rect x="1196" y="82" width="182" height="612" rx="10"/></clipPath>
</defs>

<!-- BG -->
<rect width="1400" height="900" fill="#F1F5F9"/>

<!-- BANNER -->
<rect width="1400" height="66" fill="url(#tg)"/>
<text x="700" y="28" text-anchor="middle" class="h1">Zinnia Axion &#8212; Enterprise Architecture</text>
<text x="700" y="48" text-anchor="middle" class="h2">SECURITY &amp; COMPLIANCE REVIEW &#x2022; INTERNAL / CONFIDENTIAL &#x2022; MARCH 2026</text>

<!-- FLOW LINE -->
<line x1="111" y1="365" x2="1287" y2="365" stroke="#CBD5E1" stroke-width=".8" stroke-dasharray="4,3" opacity=".3"/>

<!-- ============================================================ -->
<!-- ZONE 1 : ENDPOINTS                                           -->
<!-- ============================================================ -->
<rect x="20" y="82" width="182" height="612" rx="10" fill="#FFF" filter="url(#ds)" stroke="#E2E8F0" stroke-width=".5"/>
<rect x="20" y="82" width="182" height="4" fill="#3B82F6" clip-path="url(#c1)"/>
<circle cx="42" cy="102" r="10" fill="#3B82F6"/>
<text x="42" y="105" text-anchor="middle" class="zn">01</text>
<text x="57" y="106" class="zt">Endpoints</text>
<line x1="32" y1="116" x2="190" y2="116" stroke="#E2E8F0" stroke-width=".4"/>

<g transform="translate(72,142)">
  <rect x="-18" y="-14" width="36" height="24" rx="2.5" fill="none" stroke="#3B82F6" stroke-width="1"/>
  <rect x="-4" y="10" width="8" height="3" fill="none" stroke="#3B82F6" stroke-width=".8"/>
  <rect x="-10" y="13" width="20" height="1.5" rx=".8" fill="#93C5FD"/>
</g>
<g transform="translate(138,142)">
  <rect x="-18" y="-12" width="36" height="22" rx="2.5" fill="none" stroke="#3B82F6" stroke-width="1"/>
  <rect x="-22" y="10" width="44" height="2.5" rx="1" fill="none" stroke="#3B82F6" stroke-width=".8"/>
</g>
<text x="72" y="164" text-anchor="middle" class="bi">macOS</text>
<text x="138" y="164" text-anchor="middle" class="bi">Windows</text>
<text x="111" y="180" text-anchor="middle" class="sb">Axion Tracker Agent</text>

<text x="34" y="200" class="sl" fill="#16A34A">&#10003; CAPTURES</text>
<text x="34" y="214" class="bt">&#8226; Active app name</text>
<text x="34" y="227" class="bt">&#8226; Mouse / key event counts</text>
<text x="34" y="240" class="bt">&#8226; Idle time (seconds)</text>
<text x="34" y="253" class="bt">&#8226; Distraction flags</text>

<text x="34" y="274" class="sl" fill="#DC2626">&#10007; NEVER CAPTURED</text>
<text x="34" y="288" class="bt">&#8226; Keystroke content</text>
<text x="34" y="301" class="bt">&#8226; Screenshots</text>
<text x="34" y="314" class="bt">&#8226; Clipboard / files</text>
<text x="34" y="327" class="bt">&#8226; URLs / web content</text>
<text x="34" y="340" class="bt">&#8226; Email / messages</text>
<text x="34" y="353" class="bt">&#8226; PII / PHI</text>

<text x="34" y="376" class="sl" fill="#475569">AGENT HARDENING</text>
<text x="34" y="390" class="bt">&#8226; Code-signed binary</text>
<text x="34" y="403" class="bt">&#8226; Auto-update w/ sig verify</text>
<text x="34" y="416" class="bt">&#8226; Read-only policy config</text>
<text x="34" y="429" class="bt">&#8226; Fields allowlist enforced</text>
<text x="34" y="442" class="bt">&#8226; Local buffer (offline)</text>
<text x="34" y="455" class="bt">&#8226; Silent &#8212; no user UI</text>

<line x1="32" y1="670" x2="190" y2="670" stroke="#E2E8F0" stroke-width=".4"/>
<text x="111" y="686" text-anchor="middle" class="tl">Zero content capture by design</text>

<!-- ARROW -->
<line x1="204" y1="365" x2="213" y2="365" stroke="#94A3B8" stroke-width="1.2" marker-end="url(#arr)"/>

<!-- ============================================================ -->
<!-- ZONE 2 : NETWORK & TRANSPORT                                 -->
<!-- ============================================================ -->
<rect x="216" y="82" width="182" height="612" rx="10" fill="#FFF" filter="url(#ds)" stroke="#E2E8F0" stroke-width=".5"/>
<rect x="216" y="82" width="182" height="4" fill="#0EA5E9" clip-path="url(#c2)"/>
<circle cx="238" cy="102" r="10" fill="#0EA5E9"/>
<text x="238" y="105" text-anchor="middle" class="zn">02</text>
<text x="253" y="106" class="zt">Network &amp; Transport</text>
<line x1="228" y1="116" x2="386" y2="116" stroke="#E2E8F0" stroke-width=".4"/>

<!-- Lock icon -->
<g transform="translate(307,148)">
  <rect x="-12" y="-2" width="24" height="18" rx="3" fill="#E0F2FE" stroke="#0EA5E9" stroke-width="1.2"/>
  <path d="M-7,-2 L-7,-8 C-7,-14 7,-14 7,-8 L7,-2" fill="none" stroke="#0EA5E9" stroke-width="1.3"/>
  <circle cx="0" cy="8" r="2.5" fill="#0EA5E9"/>
</g>
<text x="307" y="180" text-anchor="middle" class="sb">Defense in Depth</text>

<rect x="230" y="194" width="154" height="30" rx="6" fill="#E0F2FE" stroke="#BAE6FD" stroke-width=".6"/>
<text x="240" y="207" class="pill" fill="#0369A1">TLS 1.2+ mandatory</text>
<text x="240" y="218" fill="#0369A1" font-size="7">All traffic encrypted in transit</text>

<rect x="230" y="232" width="154" height="30" rx="6" fill="#E0F2FE" stroke="#BAE6FD" stroke-width=".6"/>
<text x="240" y="245" class="pill" fill="#0369A1">WAF / API gateway</text>
<text x="240" y="256" fill="#0369A1" font-size="7">Header allowlist + bot detection</text>

<rect x="230" y="270" width="154" height="30" rx="6" fill="#E0F2FE" stroke="#BAE6FD" stroke-width=".6"/>
<text x="240" y="283" class="pill" fill="#0369A1">Rate limiting</text>
<text x="240" y="294" fill="#0369A1" font-size="7">120 req/min/device &#8226; 512KB max</text>

<rect x="230" y="308" width="154" height="30" rx="6" fill="#E0F2FE" stroke="#BAE6FD" stroke-width=".6"/>
<text x="240" y="321" class="pill" fill="#0369A1">HSTS + CSP</text>
<text x="240" y="332" fill="#0369A1" font-size="7">Strict security headers enforced</text>

<rect x="230" y="346" width="154" height="30" rx="6" fill="#E0F2FE" stroke="#BAE6FD" stroke-width=".6"/>
<text x="240" y="359" class="pill" fill="#0369A1">CORS strict</text>
<text x="240" y="370" fill="#0369A1" font-size="7">No wildcard &#8226; Origin allowlist</text>

<rect x="230" y="384" width="154" height="30" rx="6" fill="#E0F2FE" stroke="#BAE6FD" stroke-width=".6"/>
<text x="240" y="397" class="pill" fill="#0369A1">VPN / ZTNA</text>
<text x="240" y="408" fill="#0369A1" font-size="7">Corporate perimeter &#8226; FW 443 only</text>

<line x1="228" y1="670" x2="386" y2="670" stroke="#E2E8F0" stroke-width=".4"/>
<text x="307" y="686" text-anchor="middle" class="tl">Enterprise-grade perimeter</text>

<line x1="400" y1="365" x2="409" y2="365" stroke="#94A3B8" stroke-width="1.2" marker-end="url(#arr)"/>

<!-- ============================================================ -->
<!-- ZONE 3 : AUTHENTICATION                                      -->
<!-- ============================================================ -->
<rect x="412" y="82" width="182" height="612" rx="10" fill="#FFF" filter="url(#ds)" stroke="#E2E8F0" stroke-width=".5"/>
<rect x="412" y="82" width="182" height="4" fill="#10B981" clip-path="url(#c3)"/>
<circle cx="434" cy="102" r="10" fill="#10B981"/>
<text x="434" y="105" text-anchor="middle" class="zn">03</text>
<text x="449" y="106" class="zt">Authentication</text>
<line x1="424" y1="116" x2="582" y2="116" stroke="#E2E8F0" stroke-width=".4"/>

<!-- Shield -->
<g transform="translate(503,148)">
  <path d="M0,-20 L16,-13 L16,3 C16,12 0,20 0,20 C0,20 -16,12 -16,3 L-16,-13 Z" fill="#ECFDF5" stroke="#10B981" stroke-width="1.2" stroke-linejoin="round"/>
  <path d="M-5,-3 L-1,2 L6,-6" fill="none" stroke="#10B981" stroke-width="2" stroke-linecap="round" stroke-linejoin="round"/>
</g>
<text x="503" y="180" text-anchor="middle" class="sb">Identity &amp; Access</text>

<text x="426" y="200" class="sl" fill="#475569">AGENT AUTH</text>
<rect x="426" y="208" width="154" height="30" rx="6" fill="#F0FDF4" stroke="#BBF7D0" stroke-width=".6"/>
<text x="436" y="221" class="pill" fill="#15803D">Bearer device token</text>
<text x="436" y="232" fill="#15803D" font-size="7">IT-provisioned &#8226; SHA-256 hashed</text>

<rect x="426" y="246" width="154" height="30" rx="6" fill="#F0FDF4" stroke="#BBF7D0" stroke-width=".6"/>
<text x="436" y="259" class="pill" fill="#15803D">X-LAN-ID header</text>
<text x="436" y="270" fill="#15803D" font-size="7">Validated against token owner</text>

<rect x="426" y="284" width="154" height="30" rx="6" fill="#F0FDF4" stroke="#BBF7D0" stroke-width=".6"/>
<text x="436" y="297" class="pill" fill="#15803D">Token rotation</text>
<text x="436" y="308" fill="#15803D" font-size="7">Revocable + expiry support</text>

<text x="426" y="336" class="sl" fill="#475569">ADMIN AUTH</text>
<rect x="426" y="344" width="154" height="30" rx="6" fill="#F0FDF4" stroke="#BBF7D0" stroke-width=".6"/>
<text x="436" y="357" class="pill" fill="#15803D">SSO / OIDC</text>
<text x="436" y="368" fill="#15803D" font-size="7">Azure AD / Okta &#8226; PKCE flow</text>

<rect x="426" y="382" width="154" height="30" rx="6" fill="#F0FDF4" stroke="#BBF7D0" stroke-width=".6"/>
<text x="436" y="395" class="pill" fill="#15803D">MFA enforced at IdP</text>
<text x="436" y="406" fill="#15803D" font-size="7">No password-only admin login</text>

<text x="426" y="432" class="sl" fill="#475569">SESSION</text>
<text x="426" y="446" class="bt">&#8226; Server-side storage</text>
<text x="426" y="459" class="bt">&#8226; HttpOnly + Secure cookies</text>
<text x="426" y="472" class="bt">&#8226; SameSite=Lax</text>
<text x="426" y="485" class="bt">&#8226; 30-min TTL + idle timeout</text>
<text x="426" y="498" class="bt">&#8226; CSRF (Flask-WTF)</text>

<line x1="424" y1="670" x2="582" y2="670" stroke="#E2E8F0" stroke-width=".4"/>
<text x="503" y="686" text-anchor="middle" class="tl">Strong auth, zero trust</text>

<line x1="596" y1="365" x2="605" y2="365" stroke="#94A3B8" stroke-width="1.2" marker-end="url(#arr)"/>

<!-- ============================================================ -->
<!-- ZONE 4 : BACKEND API                                         -->
<!-- ============================================================ -->
<rect x="608" y="82" width="182" height="612" rx="10" fill="#FFF" filter="url(#ds)" stroke="#E2E8F0" stroke-width=".5"/>
<rect x="608" y="82" width="182" height="4" fill="#6366F1" clip-path="url(#c4)"/>
<circle cx="630" cy="102" r="10" fill="#6366F1"/>
<text x="630" y="105" text-anchor="middle" class="zn">04</text>
<text x="645" y="106" class="zt">Backend API</text>
<line x1="620" y1="116" x2="778" y2="116" stroke="#E2E8F0" stroke-width=".4"/>

<!-- Server icon -->
<g transform="translate(699,142)">
  <rect x="-20" y="-14" width="40" height="10" rx="2" fill="none" stroke="#6366F1" stroke-width="1"/>
  <circle cx="13" cy="-9" r="1.5" fill="#6366F1" opacity=".4"/><circle cx="17" cy="-9" r="1.5" fill="#6366F1"/>
  <rect x="-20" y="0" width="40" height="10" rx="2" fill="none" stroke="#6366F1" stroke-width="1"/>
  <circle cx="13" cy="5" r="1.5" fill="#6366F1" opacity=".4"/><circle cx="17" cy="5" r="1.5" fill="#6366F1"/>
  <rect x="-20" y="14" width="40" height="10" rx="2" fill="none" stroke="#6366F1" stroke-width="1"/>
  <circle cx="13" cy="19" r="1.5" fill="#6366F1" opacity=".4"/><circle cx="17" cy="19" r="1.5" fill="#6366F1"/>
</g>
<text x="699" y="180" text-anchor="middle" class="sb">Flask + Blueprints</text>

<text x="622" y="200" class="sl" fill="#475569">INGESTION</text>
<text x="622" y="214" class="bt">&#8226; POST /track</text>
<text x="622" y="227" class="bt">&#8226; POST /tracker/ingest</text>
<text x="622" y="240" class="bt">&#8226; Schema validation</text>
<text x="622" y="253" class="bt">&#8226; Timestamp verification</text>
<text x="622" y="266" class="bt">&#8226; LAN-ID membership check</text>

<text x="622" y="288" class="sl" fill="#475569">PROCESSING</text>
<text x="622" y="302" class="bt">&#8226; 10-sec aggregation</text>
<text x="622" y="315" class="bt">&#8226; App name normalization</text>
<text x="622" y="328" class="bt">&#8226; Title redaction</text>
<text x="622" y="341" class="bt">&#8226; DROP_TITLES enforcement</text>
<text x="622" y="354" class="bt">&#8226; Anti-cheat variance</text>

<text x="622" y="376" class="sl" fill="#475569">READ APIs</text>
<text x="622" y="390" class="bt">&#8226; GET /summary/today</text>
<text x="622" y="403" class="bt">&#8226; GET /apps, /daily</text>
<text x="622" y="416" class="bt">&#8226; GET /dashboard/&#x3C;user&#x3E;</text>
<text x="622" y="429" class="bt">&#8226; GET /admin/leaderboard</text>

<text x="622" y="451" class="sl" fill="#475569">MIDDLEWARE</text>
<text x="622" y="465" class="bt">&#8226; Request-ID (UUID)</text>
<text x="622" y="478" class="bt">&#8226; Security headers</text>
<text x="622" y="491" class="bt">&#8226; Flask-Limiter</text>

<line x1="620" y1="670" x2="778" y2="670" stroke="#E2E8F0" stroke-width=".4"/>
<text x="699" y="686" text-anchor="middle" class="tl">Your data, your infrastructure</text>

<line x1="792" y1="365" x2="801" y2="365" stroke="#94A3B8" stroke-width="1.2" marker-end="url(#arr)"/>

<!-- ============================================================ -->
<!-- ZONE 5 : AUTHORIZATION                                       -->
<!-- ============================================================ -->
<rect x="804" y="82" width="182" height="612" rx="10" fill="#FFF" filter="url(#ds)" stroke="#E2E8F0" stroke-width=".5"/>
<rect x="804" y="82" width="182" height="4" fill="#F43F5E" clip-path="url(#c5)"/>
<circle cx="826" cy="102" r="10" fill="#F43F5E"/>
<text x="826" y="105" text-anchor="middle" class="zn">05</text>
<text x="841" y="106" class="zt">Authorization</text>
<line x1="816" y1="116" x2="974" y2="116" stroke="#E2E8F0" stroke-width=".4"/>

<!-- Key icon -->
<g transform="translate(895,148)">
  <circle cx="0" cy="-6" r="8" fill="#FFF1F2" stroke="#F43F5E" stroke-width="1.2"/>
  <circle cx="0" cy="-6" r="3" fill="none" stroke="#F43F5E" stroke-width="1"/>
  <line x1="0" y1="2" x2="0" y2="18" stroke="#F43F5E" stroke-width="1.2"/>
  <line x1="0" y1="12" x2="5" y2="12" stroke="#F43F5E" stroke-width="1.2"/>
  <line x1="0" y1="16" x2="5" y2="16" stroke="#F43F5E" stroke-width="1.2"/>
</g>
<text x="895" y="180" text-anchor="middle" class="sb">Team Isolation</text>

<rect x="818" y="194" width="154" height="26" rx="5" fill="#FFF1F2" stroke="#FECDD3" stroke-width=".6"/>
<text x="828" y="211" fill="#BE123C" font-size="8.5" font-weight="700">team_id NEVER from client</text>

<text x="818" y="238" class="sl" fill="#475569">RBAC DECORATORS</text>
<text x="818" y="252" class="bt">&#8226; @admin_required</text>
<text x="818" y="265" class="bt">&#8226; @team_scoped</text>
<text x="818" y="278" class="bt">&#8226; g.current_team_id</text>
<text x="818" y="291" class="bt">&#8226; Server-side derivation</text>

<text x="818" y="314" class="sl" fill="#475569">TEAM MODEL</text>
<text x="818" y="328" class="bt">&#8226; Manager &#8594; 1 team only</text>
<text x="818" y="341" class="bt">&#8226; User &#8594; 1 active team</text>
<text x="818" y="354" class="bt">&#8226; Cross-team move needs</text>
<text x="818" y="367" class="bt">   approval workflow</text>

<text x="818" y="390" class="sl" fill="#475569">PROTECTIONS</text>
<text x="818" y="404" class="bt">&#8226; IDOR blocked + logged</text>
<text x="818" y="417" class="bt">&#8226; URL param ignored</text>
<text x="818" y="430" class="bt">&#8226; Query param ignored</text>
<text x="818" y="443" class="bt">&#8226; Form field ignored</text>
<text x="818" y="456" class="bt">&#8226; All scoping server-side</text>

<text x="818" y="478" class="sl" fill="#475569">ROLES</text>
<rect x="818" y="486" width="62" height="18" rx="9" fill="#DCFCE7"/>
<text x="849" y="499" text-anchor="middle" fill="#16A34A" font-size="7.5" font-weight="700">manager</text>
<rect x="886" y="486" width="80" height="18" rx="9" fill="#FEF3C7"/>
<text x="926" y="499" text-anchor="middle" fill="#D97706" font-size="7.5" font-weight="700">superadmin</text>

<line x1="816" y1="670" x2="974" y2="670" stroke="#E2E8F0" stroke-width=".4"/>
<text x="895" y="686" text-anchor="middle" class="tl">Strict team-scoped access</text>

<line x1="988" y1="365" x2="997" y2="365" stroke="#94A3B8" stroke-width="1.2" marker-end="url(#arr)"/>

<!-- ============================================================ -->
<!-- ZONE 6 : DATA & AUDIT                                        -->
<!-- ============================================================ -->
<rect x="1000" y="82" width="182" height="612" rx="10" fill="#FFF" filter="url(#ds)" stroke="#E2E8F0" stroke-width=".5"/>
<rect x="1000" y="82" width="182" height="4" fill="#F59E0B" clip-path="url(#c6)"/>
<circle cx="1022" cy="102" r="10" fill="#F59E0B"/>
<text x="1022" y="105" text-anchor="middle" class="zn">06</text>
<text x="1037" y="106" class="zt">Data &amp; Audit</text>
<line x1="1012" y1="116" x2="1170" y2="116" stroke="#E2E8F0" stroke-width=".4"/>

<!-- DB icon -->
<g transform="translate(1091,142)">
  <ellipse cx="0" cy="-12" rx="18" ry="7" fill="#FEF3C7" stroke="#F59E0B" stroke-width="1"/>
  <path d="M-18,-12 L-18,8 C-18,12 -10,15 0,15 C10,15 18,12 18,8 L18,-12" fill="none" stroke="#F59E0B" stroke-width="1"/>
  <path d="M-18,-2 C-18,2 -10,5 0,5 C10,5 18,2 18,-2" fill="none" stroke="#F59E0B" stroke-width=".6" opacity=".5"/>
</g>
<text x="1091" y="172" text-anchor="middle" class="sb">PostgreSQL</text>

<text x="1014" y="192" class="sl" fill="#475569">TABLES</text>
<text x="1014" y="206" class="bt">&#8226; telemetry_events</text>
<text x="1014" y="219" class="bt">&#8226; users, teams</text>
<text x="1014" y="232" class="bt">&#8226; memberships, managers</text>
<text x="1014" y="245" class="bt">&#8226; device_tokens (hashed)</text>
<text x="1014" y="258" class="bt">&#8226; team_change_requests</text>

<text x="1014" y="280" class="sl" fill="#475569">SECURITY</text>
<rect x="1014" y="288" width="154" height="26" rx="5" fill="#FFFBEB" stroke="#FDE68A" stroke-width=".6"/>
<text x="1024" y="305" fill="#92400E" font-size="8.5" font-weight="600">Row-Level Security (RLS)</text>
<text x="1014" y="330" class="bt">&#8226; Encryption at rest (TDE)</text>
<text x="1014" y="343" class="bt">&#8226; SET LOCAL team_id</text>
<text x="1014" y="356" class="bt">&#8226; Network-restricted access</text>

<text x="1014" y="378" class="sl" fill="#475569">AUDIT LOG</text>
<text x="1014" y="392" class="bt">&#8226; Append-only / immutable</text>
<text x="1014" y="405" class="bt">&#8226; Actor, target, team, IP</text>
<text x="1014" y="418" class="bt">&#8226; Request-ID correlation</text>
<text x="1014" y="431" class="bt">&#8226; User-Agent captured</text>
<text x="1014" y="444" class="bt">&#8226; Login / logout / access</text>

<text x="1014" y="466" class="sl" fill="#475569">RETENTION</text>
<text x="1014" y="480" class="bt">&#8226; 14&#8211;90 days (configurable)</text>
<text x="1014" y="493" class="bt">&#8226; Automated cleanup</text>
<text x="1014" y="506" class="bt">&#8226; Encrypted backups</text>

<line x1="1012" y1="670" x2="1170" y2="670" stroke="#E2E8F0" stroke-width=".4"/>
<text x="1091" y="686" text-anchor="middle" class="tl">Audit-ready by default</text>

<line x1="1184" y1="365" x2="1193" y2="365" stroke="#94A3B8" stroke-width="1.2" marker-end="url(#arr)"/>

<!-- ============================================================ -->
<!-- ZONE 7 : DASHBOARDS                                          -->
<!-- ============================================================ -->
<rect x="1196" y="82" width="182" height="612" rx="10" fill="#FFF" filter="url(#ds)" stroke="#E2E8F0" stroke-width=".5"/>
<rect x="1196" y="82" width="182" height="4" fill="#8B5CF6" clip-path="url(#c7)"/>
<circle cx="1218" cy="102" r="10" fill="#8B5CF6"/>
<text x="1218" y="105" text-anchor="middle" class="zn">07</text>
<text x="1233" y="106" class="zt">Dashboards</text>
<line x1="1208" y1="116" x2="1366" y2="116" stroke="#E2E8F0" stroke-width=".4"/>

<!-- Chart icon -->
<g transform="translate(1287,144)">
  <rect x="-20" y="-12" width="40" height="26" rx="3" fill="#F5F3FF" stroke="#8B5CF6" stroke-width="1"/>
  <rect x="-14" y="4" width="6" height="8" rx="1" fill="#8B5CF6" opacity=".3"/>
  <rect x="-5" y="-2" width="6" height="14" rx="1" fill="#8B5CF6" opacity=".5"/>
  <rect x="4" y="-6" width="6" height="18" rx="1" fill="#8B5CF6" opacity=".7"/>
</g>
<text x="1287" y="180" text-anchor="middle" class="sb">What Leaders See</text>

<text x="1210" y="200" class="sl" fill="#475569">MANAGER VIEW</text>
<text x="1210" y="214" class="bt">&#8226; SSO login required</text>
<text x="1210" y="227" class="bt">&#8226; RBAC: own team ONLY</text>
<text x="1210" y="240" class="bt">&#8226; Team leaderboard</text>
<text x="1210" y="253" class="bt">&#8226; App breakdown</text>
<text x="1210" y="266" class="bt">&#8226; User management</text>
<text x="1210" y="279" class="bt">&#8226; Audit log viewer</text>

<rect x="1210" y="294" width="154" height="24" rx="5" fill="#F0FDF4" stroke="#BBF7D0" stroke-width=".6"/>
<text x="1222" y="310" fill="#15803D" font-size="8.5" font-weight="700">&#10003; Aggregated trends only</text>

<rect x="1210" y="324" width="154" height="24" rx="5" fill="#FFF1F2" stroke="#FECDD3" stroke-width=".6"/>
<text x="1222" y="340" fill="#BE123C" font-size="8.5" font-weight="700">&#10007; No raw content views</text>

<!-- Mini chart -->
<polyline points="1214,374 1230,370 1246,372 1262,364 1278,366 1294,360 1310,356 1326,358 1342,352 1360,346" fill="none" stroke="#8B5CF6" stroke-width="1.3" stroke-linecap="round" stroke-linejoin="round"/>
<polyline points="1214,386 1230,389 1246,384 1262,390 1278,387 1294,392 1310,395 1326,391 1342,396 1360,400" fill="none" stroke="#EF4444" stroke-width="1" stroke-linecap="round" stroke-linejoin="round" stroke-dasharray="3,2"/>
<line x1="1214" y1="410" x2="1228" y2="410" stroke="#8B5CF6" stroke-width="1.3"/>
<text x="1232" y="413" fill="#64748B" font-size="6.5">Productive</text>
<line x1="1285" y1="410" x2="1299" y2="410" stroke="#EF4444" stroke-width="1" stroke-dasharray="3,2"/>
<text x="1303" y="413" fill="#64748B" font-size="6.5">Non-Prod.</text>

<text x="1210" y="436" class="sl" fill="#475569">INDIVIDUAL VIEW</text>
<text x="1210" y="450" class="bt">&#8226; User sees own data only</text>
<text x="1210" y="463" class="bt">&#8226; Read-only summaries</text>
<text x="1210" y="476" class="bt">&#8226; Streamlit web app</text>

<text x="1210" y="500" class="sl" fill="#475569">KEY METRICS</text>
<text x="1210" y="514" class="bt">&#8226; TPI (Team Productivity)</text>
<text x="1210" y="527" class="bt">&#8226; Distraction Load %</text>
<text x="1210" y="540" class="bt">&#8226; Engagement Spread</text>
<text x="1210" y="553" class="bt">&#8226; Coverage hours</text>

<line x1="1208" y1="670" x2="1366" y2="670" stroke="#E2E8F0" stroke-width=".4"/>
<text x="1287" y="686" text-anchor="middle" class="tl">Actionable intelligence, daily</text>

<!-- ============================================================ -->
<!-- LEGEND BAR                                                   -->
<!-- ============================================================ -->
<rect x="20" y="712" width="1358" height="38" rx="8" fill="#FFF" stroke="#E2E8F0" stroke-width=".5"/>

<text x="40" y="734" fill="#475569" font-size="7.5" font-weight="700" letter-spacing=".8">LEGEND</text>
<rect x="92" y="726" width="9" height="9" rx="2" fill="#3B82F6"/>
<text x="106" y="735" fill="#334155" font-size="8">Endpoints</text>
<rect x="166" y="726" width="9" height="9" rx="2" fill="#0EA5E9"/>
<text x="180" y="735" fill="#334155" font-size="8">Network</text>
<rect x="232" y="726" width="9" height="9" rx="2" fill="#10B981"/>
<text x="246" y="735" fill="#334155" font-size="8">Auth</text>
<rect x="280" y="726" width="9" height="9" rx="2" fill="#6366F1"/>
<text x="294" y="735" fill="#334155" font-size="8">Backend</text>
<rect x="348" y="726" width="9" height="9" rx="2" fill="#F43F5E"/>
<text x="362" y="735" fill="#334155" font-size="8">AuthZ</text>
<rect x="398" y="726" width="9" height="9" rx="2" fill="#F59E0B"/>
<text x="412" y="735" fill="#334155" font-size="8">Data</text>
<rect x="448" y="726" width="9" height="9" rx="2" fill="#8B5CF6"/>
<text x="462" y="735" fill="#334155" font-size="8">Dashboards</text>

<line x1="526" y1="720" x2="526" y2="744" stroke="#E2E8F0" stroke-width=".4"/>
<text x="542" y="735" fill="#64748B" font-size="7" font-weight="600" letter-spacing=".4">PLATFORMS</text>
<text x="610" y="735" fill="#334155" font-size="8">macOS / Windows</text>

<line x1="700" y1="720" x2="700" y2="744" stroke="#E2E8F0" stroke-width=".4"/>
<text x="716" y="735" fill="#64748B" font-size="7" font-weight="600" letter-spacing=".4">RETENTION</text>
<text x="778" y="735" fill="#334155" font-size="8">14&#8211;90 days</text>

<line x1="840" y1="720" x2="840" y2="744" stroke="#E2E8F0" stroke-width=".4"/>
<text x="856" y="735" fill="#64748B" font-size="7" font-weight="600" letter-spacing=".4">DEPLOY</text>
<text x="900" y="735" fill="#334155" font-size="8">On-prem / hosted</text>

<line x1="984" y1="720" x2="984" y2="744" stroke="#E2E8F0" stroke-width=".4"/>
<text x="1000" y="735" fill="#64748B" font-size="7" font-weight="600" letter-spacing=".4">AUTH</text>
<text x="1030" y="735" fill="#334155" font-size="8">SSO + MFA (admins) &#8226; Device tokens (agents)</text>

<line x1="1238" y1="720" x2="1238" y2="744" stroke="#E2E8F0" stroke-width=".4"/>
<text x="1254" y="735" fill="#64748B" font-size="7" font-weight="600" letter-spacing=".4">PHASE</text>
<text x="1290" y="735" fill="#334155" font-size="8">Demo &#8594; Prod</text>

<!-- ============================================================ -->
<!-- FOOTER                                                       -->
<!-- ============================================================ -->
<rect x="20" y="764" width="1358" height="32" rx="8" fill="#0F172A" opacity=".04"/>
<text x="700" y="780" text-anchor="middle" fill="#64748B" font-size="9.5" font-weight="500">Data is inferred from app categories and interaction counts only &#8212; no keystroke content, screenshots, or personal data captured.</text>
<text x="700" y="796" text-anchor="middle" fill="#94A3B8" font-size="8.5">Role-based dashboards for aggregated reporting &#x2022; Demo phase &#x2192; limited production rollout pending security review</text>

<text x="1360" y="826" text-anchor="end" fill="#CBD5E1" font-size="7" font-weight="500">Zinnia Axion v1.0 &#8212; Architecture</text>
<text x="40" y="826" fill="#CBD5E1" font-size="7" font-weight="500">Zinnia &#169; 2026 &#x2022; Internal / Confidential</text>

</svg>
