<svg xmlns="http://www.w3.org/2000/svg" viewBox="0 0 2800 2000" font-family="'Segoe UI', 'Helvetica Neue', Arial, sans-serif">
  <defs>
    <filter id="sh" x="-2%" y="-2%" width="104%" height="104%">
      <feDropShadow dx="0" dy="2" stdDeviation="3" flood-opacity="0.08"/>
    </filter>
    <linearGradient id="hg" x1="0" y1="0" x2="1" y2="0">
      <stop offset="0%" stop-color="#1a365d"/><stop offset="100%" stop-color="#2c5282"/>
    </linearGradient>
    <linearGradient id="lg" x1="0" y1="0" x2="1" y2="0">
      <stop offset="0%" stop-color="#744210"/><stop offset="100%" stop-color="#975a16"/>
    </linearGradient>
    <linearGradient id="sg" x1="0" y1="0" x2="1" y2="0">
      <stop offset="0%" stop-color="#22543d"/><stop offset="100%" stop-color="#276749"/>
    </linearGradient>
  </defs>

  <rect width="2800" height="2000" fill="#f7fafc"/>

  <!-- HEADER -->
  <rect width="2800" height="80" fill="url(#hg)"/>
  <text x="40" y="35" fill="#fff" font-size="24" font-weight="700">Zinnia Axion</text>
  <text x="40" y="58" fill="#bee3f8" font-size="13">Legal &amp; Compliance View of the Architecture -- Workforce Activity Insights Platform</text>
  <rect x="2520" y="18" width="240" height="28" rx="14" fill="rgba(255,255,255,0.15)" stroke="rgba(255,255,255,0.3)" stroke-width="1"/>
  <text x="2560" y="38" fill="#fff" font-size="11" font-weight="600">INTERNAL -- CONFIDENTIAL</text>
  <text x="40" y="72" fill="#90cdf4" font-size="10">Non-Technical Overview for Legal, Privacy, Risk &amp; Audit Stakeholders</text>

  <!-- ======================== ROW 1 ======================== -->
  <!-- Arrows between cards -->
  <polygon points="670,200 680,195 680,205" fill="#a0aec0"/>
  <line x1="655" y1="200" x2="678" y2="200" stroke="#a0aec0" stroke-width="1.5"/>
  <polygon points="1350,200 1360,195 1360,205" fill="#a0aec0"/>
  <line x1="1335" y1="200" x2="1358" y2="200" stroke="#a0aec0" stroke-width="1.5"/>
  <polygon points="2030,200 2040,195 2040,205" fill="#a0aec0"/>
  <line x1="2015" y1="200" x2="2038" y2="200" stroke="#a0aec0" stroke-width="1.5"/>

  <!-- 1: BUSINESS PURPOSE -->
  <rect x="30" y="100" width="630" height="230" rx="10" fill="#fff" stroke="#e2e8f0" stroke-width="1" filter="url(#sh)"/>
  <rect x="30" y="100" width="630" height="34" rx="10" fill="#ebf8ff"/>
  <rect x="30" y="124" width="630" height="10" fill="#ebf8ff"/>
  <circle cx="54" cy="117" r="11" fill="#3182ce"/><text x="54" y="121" fill="#fff" font-size="11" font-weight="700" text-anchor="middle">1</text>
  <text x="74" y="122" fill="#2c5282" font-size="13" font-weight="700">Business Purpose</text>
  <text x="260" y="122" fill="#718096" font-size="10" font-style="italic">"Why this system exists"</text>
  <text x="50" y="155" fill="#4a5568" font-size="11">* Understand workforce activity trends across teams</text>
  <text x="50" y="172" fill="#4a5568" font-size="11">* Operational visibility for manager productivity insights</text>
  <text x="50" y="189" fill="#4a5568" font-size="11">* Aggregated reporting -- not individual surveillance</text>
  <text x="50" y="206" fill="#4a5568" font-size="11">* Internal enterprise use on company-managed devices</text>
  <rect x="50" y="218" width="590" height="28" rx="4" fill="#f0fff4" stroke="#c6f6d5" stroke-width="1"/>
  <text x="65" y="236" fill="#276749" font-size="10" font-weight="600">KEY: Measures activity signals (interaction counts), not activity content (what was typed/read/viewed)</text>
  <rect x="50" y="252" width="590" height="24" rx="4" fill="#ebf8ff" stroke="#bee3f8" stroke-width="1"/>
  <text x="65" y="268" fill="#2c5282" font-size="10">Designed for aggregated team-level trends -- not personal surveillance or content monitoring</text>

  <!-- 2: ENDPOINT / DEVICE -->
  <rect x="690" y="100" width="630" height="230" rx="10" fill="#fff" stroke="#e2e8f0" stroke-width="1" filter="url(#sh)"/>
  <rect x="690" y="100" width="630" height="34" rx="10" fill="#faf5ff"/>
  <rect x="690" y="124" width="630" height="10" fill="#faf5ff"/>
  <circle cx="714" cy="117" r="11" fill="#805ad5"/><text x="714" y="121" fill="#fff" font-size="11" font-weight="700" text-anchor="middle">2</text>
  <text x="734" y="122" fill="#553c9a" font-size="13" font-weight="700">Endpoint / Device Layer</text>
  <text x="710" y="155" fill="#553c9a" font-size="10" font-weight="600">Technical: "Axion Tracker Agent"</text>
  <text x="710" y="172" fill="#718096" font-size="10" font-style="italic">A small company-installed app on employee Windows/Mac devices</text>
  <text x="710" y="195" fill="#4a5568" font-size="11">* Runs quietly in the background on company-managed devices</text>
  <text x="710" y="212" fill="#4a5568" font-size="11">* Records only limited activity signals for work pattern analysis</text>
  <text x="710" y="229" fill="#4a5568" font-size="11">* Deployed and controlled by company IT (MDM tools)</text>
  <text x="710" y="246" fill="#4a5568" font-size="11">* Can be signed with a company certificate for authenticity</text>
  <text x="710" y="263" fill="#4a5568" font-size="11">* Updates managed via standard enterprise deployment</text>
  <rect x="710" y="275" width="590" height="22" rx="4" fill="#faf5ff" stroke="#e9d8fd" stroke-width="1"/>
  <text x="725" y="290" fill="#718096" font-size="9.5" font-style="italic">Agent = a small application installed on a company device</text>

  <!-- 3: DATA COLLECTED -->
  <rect x="1370" y="100" width="630" height="230" rx="10" fill="#fff" stroke="#e2e8f0" stroke-width="1" filter="url(#sh)"/>
  <rect x="1370" y="100" width="630" height="34" rx="10" fill="#ebf8ff"/>
  <rect x="1370" y="124" width="630" height="10" fill="#ebf8ff"/>
  <circle cx="1394" cy="117" r="11" fill="#3182ce"/><text x="1394" y="121" fill="#fff" font-size="11" font-weight="700" text-anchor="middle">3</text>
  <text x="1414" y="122" fill="#2c5282" font-size="13" font-weight="700">Data Collected</text>
  <text x="1550" y="122" fill="#718096" font-size="10" font-style="italic">"Allowed Metadata"</text>
  <text x="1390" y="152" fill="#718096" font-size="10" font-style="italic">Limited work activity indicators -- not the actual content of work</text>
  <rect x="1390" y="162" width="285" height="130" rx="5" fill="#ebf8ff" stroke="#bee3f8" stroke-width="1"/>
  <text x="1405" y="180" fill="#2c5282" font-size="10" font-weight="600">Collected Signals:</text>
  <text x="1405" y="196" fill="#4a5568" font-size="10.5">[+] Active application name</text>
  <text x="1405" y="212" fill="#4a5568" font-size="10.5">[+] Keyboard interaction count</text>
  <text x="1405" y="228" fill="#4a5568" font-size="10.5">[+] Mouse interaction count</text>
  <text x="1405" y="244" fill="#4a5568" font-size="10.5">[+] Idle / inactive time</text>
  <text x="1405" y="260" fill="#4a5568" font-size="10.5">[+] Timestamps</text>
  <text x="1405" y="276" fill="#4a5568" font-size="10.5">[+] Mouse distance (pixels)</text>
  <rect x="1695" y="162" width="285" height="130" rx="5" fill="#ebf8ff" stroke="#bee3f8" stroke-width="1"/>
  <text x="1710" y="180" fill="#2c5282" font-size="10" font-weight="600">Additional:</text>
  <text x="1710" y="196" fill="#4a5568" font-size="10.5">[+] Distraction indicator flag</text>
  <text x="1710" y="216" fill="#718096" font-size="9.5" font-style="italic">    (non-work app visible on</text>
  <text x="1710" y="230" fill="#718096" font-size="9.5" font-style="italic">     another monitor)</text>
  <text x="1710" y="258" fill="#276749" font-size="10" font-weight="600">All signals are counts/flags.</text>
  <text x="1710" y="274" fill="#276749" font-size="10" font-weight="600">No content is ever captured.</text>

  <!-- 4: DATA NOT COLLECTED -->
  <rect x="2050" y="100" width="720" height="230" rx="10" fill="#fff5f5" stroke="#feb2b2" stroke-width="2" filter="url(#sh)"/>
  <rect x="2050" y="100" width="720" height="34" rx="10" fill="#fed7d7"/>
  <rect x="2050" y="124" width="720" height="10" fill="#fed7d7"/>
  <circle cx="2074" cy="117" r="11" fill="#e53e3e"/><text x="2074" y="121" fill="#fff" font-size="11" font-weight="700" text-anchor="middle">4</text>
  <text x="2094" y="122" fill="#c53030" font-size="13" font-weight="700">Data NOT Collected -- Excluded by Design</text>
  <rect x="2070" y="142" width="225" height="145" rx="5" fill="#fff" stroke="#feb2b2" stroke-width="1"/>
  <text x="2085" y="160" fill="#c53030" font-size="10" font-weight="600">[X] Content Never Captured:</text>
  <text x="2085" y="178" fill="#742a2a" font-size="10.5">x Typed words / keystroke content</text>
  <text x="2085" y="194" fill="#742a2a" font-size="10.5">x Screenshots / recordings</text>
  <text x="2085" y="210" fill="#742a2a" font-size="10.5">x Clipboard contents</text>
  <text x="2085" y="226" fill="#742a2a" font-size="10.5">x Passwords / credentials</text>
  <text x="2085" y="242" fill="#742a2a" font-size="10.5">x Personal / medical data</text>
  <text x="2085" y="258" fill="#742a2a" font-size="10.5">x Financial information</text>
  <rect x="2310" y="142" width="225" height="145" rx="5" fill="#fff" stroke="#feb2b2" stroke-width="1"/>
  <text x="2325" y="160" fill="#c53030" font-size="10" font-weight="600">[X] Communications:</text>
  <text x="2325" y="178" fill="#742a2a" font-size="10.5">x Email / chat content</text>
  <text x="2325" y="194" fill="#742a2a" font-size="10.5">x URLs / web page content</text>
  <text x="2325" y="210" fill="#742a2a" font-size="10.5">x Video / audio recordings</text>
  <text x="2325" y="226" fill="#742a2a" font-size="10.5">x Personal messages</text>
  <text x="2325" y="242" fill="#742a2a" font-size="10.5">x Document contents</text>
  <text x="2325" y="258" fill="#742a2a" font-size="10.5">x Personal files</text>
  <rect x="2550" y="142" width="200" height="145" rx="5" fill="#fffaf0" stroke="#fbd38d" stroke-width="1"/>
  <text x="2565" y="162" fill="#975a16" font-size="10" font-weight="700">Privacy Assurance:</text>
  <text x="2565" y="182" fill="#744210" font-size="10">The tracker counts</text>
  <text x="2565" y="196" fill="#744210" font-size="10">interactions (e.g., "47</text>
  <text x="2565" y="210" fill="#744210" font-size="10">keystrokes in 60s") but</text>
  <text x="2565" y="224" fill="#744210" font-size="10">has no capability to</text>
  <text x="2565" y="238" fill="#744210" font-size="10">read what was typed.</text>
  <text x="2565" y="260" fill="#975a16" font-size="9.5" font-weight="600">Content capture is</text>
  <text x="2565" y="274" fill="#975a16" font-size="9.5" font-weight="600">architecturally excluded.</text>

  <!-- ======================== ROW 2 ======================== -->
  <polygon points="670,460 680,455 680,465" fill="#a0aec0"/>
  <line x1="655" y1="460" x2="678" y2="460" stroke="#a0aec0" stroke-width="1.5"/>
  <polygon points="1350,460 1360,455 1360,465" fill="#a0aec0"/>
  <line x1="1335" y1="460" x2="1358" y2="460" stroke="#a0aec0" stroke-width="1.5"/>
  <polygon points="2030,460 2040,455 2040,465" fill="#a0aec0"/>
  <line x1="2015" y1="460" x2="2038" y2="460" stroke="#a0aec0" stroke-width="1.5"/>

  <!-- 5: SECURE TRANSMISSION -->
  <rect x="30" y="360" width="630" height="230" rx="10" fill="#fff" stroke="#e2e8f0" stroke-width="1" filter="url(#sh)"/>
  <rect x="30" y="360" width="630" height="34" rx="10" fill="#f0fff4"/>
  <rect x="30" y="384" width="630" height="10" fill="#f0fff4"/>
  <circle cx="54" cy="377" r="11" fill="#38a169"/><text x="54" y="381" fill="#fff" font-size="11" font-weight="700" text-anchor="middle">5</text>
  <text x="74" y="382" fill="#276749" font-size="13" font-weight="700">Secure Transmission</text>
  <text x="50" y="412" fill="#276749" font-size="10" font-weight="600">Technical: "Encrypted Data Transfer (TLS/HTTPS)"</text>
  <text x="50" y="428" fill="#718096" font-size="10" font-style="italic">Data is protected while being sent from devices to company systems</text>
  <text x="50" y="452" fill="#4a5568" font-size="11">[LOCK] <tspan font-weight="600">TLS / HTTPS</tspan> -- All data encrypted while traveling over the network.</text>
  <text x="75" y="466" fill="#718096" font-size="10">Like a sealed envelope -- even if intercepted, contents cannot be read.</text>
  <text x="50" y="488" fill="#4a5568" font-size="11">[SHIELD] <tspan font-weight="600">Rate Limiting</tspan> -- Prevents abuse or flooding (120 requests/min limit).</text>
  <text x="50" y="510" fill="#4a5568" font-size="11">[CHECK] <tspan font-weight="600">Trusted Routes Only</tspan> -- Only approved devices and paths can send data.</text>
  <text x="75" y="524" fill="#718096" font-size="10">Unauthorized senders are rejected before reaching the application.</text>
  <text x="50" y="548" fill="#4a5568" font-size="11">[VERIFY] <tspan font-weight="600">Input Validation</tspan> -- Every signal is checked for correct format and ranges.</text>

  <!-- 6: IDENTITY AND LOGIN -->
  <rect x="690" y="360" width="630" height="230" rx="10" fill="#fff" stroke="#e2e8f0" stroke-width="1" filter="url(#sh)"/>
  <rect x="690" y="360" width="630" height="34" rx="10" fill="#fffff0"/>
  <rect x="690" y="384" width="630" height="10" fill="#fffff0"/>
  <circle cx="714" cy="377" r="11" fill="#d69e2e"/><text x="714" y="381" fill="#fff" font-size="11" font-weight="700" text-anchor="middle">6</text>
  <text x="734" y="382" fill="#975a16" font-size="13" font-weight="700">Identity &amp; Login</text>
  <rect x="710" y="402" width="290" height="170" rx="5" fill="#fffff0" stroke="#fefcbf" stroke-width="1"/>
  <text x="725" y="420" fill="#975a16" font-size="11" font-weight="700">A. Device Authentication</text>
  <text x="725" y="436" fill="#718096" font-size="9.5" font-style="italic">"Device Token"</text>
  <text x="725" y="456" fill="#4a5568" font-size="10.5">Each approved device must prove</text>
  <text x="725" y="470" fill="#4a5568" font-size="10.5">it is authorized before sending data.</text>
  <text x="725" y="492" fill="#4a5568" font-size="10.5">* Unique token per device</text>
  <text x="725" y="508" fill="#4a5568" font-size="10.5">* Token is hashed (cannot be reversed)</text>
  <text x="725" y="524" fill="#4a5568" font-size="10.5">* Tokens expire and can be revoked</text>
  <text x="725" y="540" fill="#4a5568" font-size="10.5">* Validated server-side on every request</text>
  <rect x="1015" y="402" width="290" height="170" rx="5" fill="#fffff0" stroke="#fefcbf" stroke-width="1"/>
  <text x="1030" y="420" fill="#975a16" font-size="11" font-weight="700">B. Manager / Admin Login</text>
  <text x="1030" y="436" fill="#718096" font-size="9.5" font-style="italic">"SSO / Company Login"</text>
  <text x="1030" y="456" fill="#4a5568" font-size="10.5">Managers log in using the company's</text>
  <text x="1030" y="470" fill="#4a5568" font-size="10.5">standard secure sign-in system.</text>
  <text x="1030" y="492" fill="#4a5568" font-size="10.5">* SSO = one company login</text>
  <text x="1030" y="508" fill="#4a5568" font-size="10.5">* MFA = extra verification step</text>
  <text x="1030" y="524" fill="#4a5568" font-size="10.5">* Sessions time out after 8 hours</text>
  <text x="1030" y="540" fill="#4a5568" font-size="10.5">* No local passwords stored</text>

  <!-- 7: BACKEND PROCESSING -->
  <rect x="1370" y="360" width="630" height="230" rx="10" fill="#fff" stroke="#e2e8f0" stroke-width="1" filter="url(#sh)"/>
  <rect x="1370" y="360" width="630" height="34" rx="10" fill="#ebf8ff"/>
  <rect x="1370" y="384" width="630" height="10" fill="#ebf8ff"/>
  <circle cx="1394" cy="377" r="11" fill="#3182ce"/><text x="1394" y="381" fill="#fff" font-size="11" font-weight="700" text-anchor="middle">7</text>
  <text x="1414" y="382" fill="#2c5282" font-size="13" font-weight="700">Backend Processing</text>
  <text x="1390" y="412" fill="#2c5282" font-size="10" font-weight="600">Technical: "Backend API &amp; Processing Layer"</text>
  <text x="1390" y="428" fill="#718096" font-size="10" font-style="italic">Company servers receive, validate, and summarize activity signals</text>
  <text x="1390" y="450" fill="#4a5568" font-size="11">1. <tspan font-weight="600">APIs receive data</tspan> -- secure endpoints accept signals</text>
  <text x="1390" y="468" fill="#4a5568" font-size="11">2. <tspan font-weight="600">Validation checks</tspan> -- format and range verification</text>
  <text x="1390" y="486" fill="#4a5568" font-size="11">3. <tspan font-weight="600">Title masking</tspan> -- sensitive titles stripped/replaced</text>
  <text x="1390" y="504" fill="#4a5568" font-size="11">4. <tspan font-weight="600">Classification engine</tspan> -- 60s confidence scoring</text>
  <text x="1390" y="522" fill="#4a5568" font-size="11">5. <tspan font-weight="600">Read-time processing</tspan> -- raw data stored as-is</text>
  <rect x="1390" y="536" width="590" height="24" rx="4" fill="#ebf8ff" stroke="#bee3f8" stroke-width="1"/>
  <text x="1405" y="553" fill="#718096" font-size="9.5">API = a secure communication point used by software to send/receive data</text>

  <!-- 8: ACCESS CONTROL -->
  <rect x="2050" y="360" width="720" height="230" rx="10" fill="#fff" stroke="#e2e8f0" stroke-width="1" filter="url(#sh)"/>
  <rect x="2050" y="360" width="720" height="34" rx="10" fill="#faf5ff"/>
  <rect x="2050" y="384" width="720" height="10" fill="#faf5ff"/>
  <circle cx="2074" cy="377" r="11" fill="#805ad5"/><text x="2074" y="381" fill="#fff" font-size="11" font-weight="700" text-anchor="middle">8</text>
  <text x="2094" y="382" fill="#553c9a" font-size="13" font-weight="700">Access Control / Authorization</text>
  <text x="2070" y="412" fill="#553c9a" font-size="10" font-weight="600">Technical: "Role-Based Access Control with Team Hierarchy"</text>
  <text x="2070" y="428" fill="#718096" font-size="10" font-style="italic">People only see the information they are allowed to see</text>
  <text x="2070" y="452" fill="#4a5568" font-size="11">[USER] <tspan font-weight="600">Managers</tspan> can only see their own team's summarized data</text>
  <text x="2070" y="470" fill="#4a5568" font-size="11">[USER] <tspan font-weight="600">Employees</tspan> can only see their own personal activity summary</text>
  <text x="2070" y="488" fill="#4a5568" font-size="11">[TEAM] <tspan font-weight="600">Team isolation</tspan> -- one team cannot see another team's data</text>
  <text x="2070" y="506" fill="#4a5568" font-size="11">[LOCK] <tspan font-weight="600">Server-enforced</tspan> -- access controlled on server, not by user links</text>
  <text x="2070" y="524" fill="#4a5568" font-size="11">[LOG] <tspan font-weight="600">Cross-scope attempts</tspan> -- blocked and recorded in audit log</text>
  <rect x="2070" y="540" width="680" height="24" rx="4" fill="#faf5ff" stroke="#e9d8fd" stroke-width="1"/>
  <text x="2085" y="557" fill="#718096" font-size="9.5" font-style="italic">Authorization = rules about what data each person can access, based on their job role</text>

  <!-- ======================== ROW 3 ======================== -->
  <polygon points="670,720 680,715 680,725" fill="#a0aec0"/>
  <line x1="655" y1="720" x2="678" y2="720" stroke="#a0aec0" stroke-width="1.5"/>
  <polygon points="1350,720 1360,715 1360,725" fill="#a0aec0"/>
  <line x1="1335" y1="720" x2="1358" y2="720" stroke="#a0aec0" stroke-width="1.5"/>
  <polygon points="2030,720 2040,715 2040,725" fill="#a0aec0"/>
  <line x1="2015" y1="720" x2="2038" y2="720" stroke="#a0aec0" stroke-width="1.5"/>

  <!-- 9: DATA STORAGE -->
  <rect x="30" y="620" width="630" height="230" rx="10" fill="#fff" stroke="#e2e8f0" stroke-width="1" filter="url(#sh)"/>
  <rect x="30" y="620" width="630" height="34" rx="10" fill="#f0fff4"/>
  <rect x="30" y="644" width="630" height="10" fill="#f0fff4"/>
  <circle cx="54" cy="637" r="11" fill="#38a169"/><text x="54" y="641" fill="#fff" font-size="11" font-weight="700" text-anchor="middle">9</text>
  <text x="74" y="642" fill="#276749" font-size="13" font-weight="700">Data Storage &amp; Retention</text>
  <text x="50" y="672" fill="#276749" font-size="10" font-weight="600">Technical: "Protected Data Storage (PostgreSQL)"</text>
  <text x="50" y="688" fill="#718096" font-size="10" font-style="italic">Company-controlled systems with access restrictions and retention rules</text>
  <text x="50" y="710" fill="#4a5568" font-size="11">[DB] <tspan font-weight="600">Enterprise database</tspan> -- PostgreSQL, widely trusted</text>
  <text x="50" y="728" fill="#4a5568" font-size="11">[LOCK] <tspan font-weight="600">Encryption at rest</tspan> -- stored data protected from unauthorized access</text>
  <text x="50" y="746" fill="#4a5568" font-size="11">[LOCK] <tspan font-weight="600">Row-level security</tspan> -- database restricts which rows each query sees</text>
  <text x="50" y="764" fill="#4a5568" font-size="11">[CLOCK] <tspan font-weight="600">Automatic retention</tspan> -- old data deleted per configured policy</text>
  <rect x="50" y="780" width="590" height="38" rx="4" fill="#f0fff4" stroke="#c6f6d5" stroke-width="1"/>
  <text x="65" y="796" fill="#276749" font-size="10" font-weight="600">Retention: Configurable (default 14 days, up to 90 days per policy).</text>
  <text x="65" y="810" fill="#718096" font-size="9.5">Activity data auto-purged. Audit logs retained indefinitely for compliance.</text>

  <!-- 10: AUDIT -->
  <rect x="690" y="620" width="630" height="230" rx="10" fill="#fff" stroke="#e2e8f0" stroke-width="1" filter="url(#sh)"/>
  <rect x="690" y="620" width="630" height="34" rx="10" fill="#fffff0"/>
  <rect x="690" y="644" width="630" height="10" fill="#fffff0"/>
  <circle cx="714" cy="637" r="11" fill="#d69e2e"/><text x="714" y="641" fill="#fff" font-size="11" font-weight="700" text-anchor="middle">10</text>
  <text x="737" y="642" fill="#975a16" font-size="13" font-weight="700">Audit &amp; Monitoring</text>
  <text x="710" y="672" fill="#975a16" font-size="10" font-weight="600">Technical: "Immutable Audit Trail"</text>
  <text x="710" y="688" fill="#718096" font-size="10" font-style="italic">Important actions are recorded for accountability and review</text>
  <text x="710" y="710" fill="#4a5568" font-size="11">[LOG] <tspan font-weight="600">14 action types recorded</tspan>, including:</text>
  <text x="730" y="728" fill="#4a5568" font-size="10.5">* Login / logout events</text>
  <text x="730" y="744" fill="#4a5568" font-size="10.5">* Dashboard access and data views</text>
  <text x="730" y="760" fill="#4a5568" font-size="10.5">* Admin actions (delete, assign, transfer)</text>
  <text x="730" y="776" fill="#4a5568" font-size="10.5">* Unauthorized access attempts (blocked + logged)</text>
  <text x="730" y="792" fill="#4a5568" font-size="10.5">* Rate limit violations and system events</text>
  <text x="710" y="816" fill="#4a5568" font-size="11">[LINK] Each action tagged with: who, IP, when, unique request ID</text>
  <text x="710" y="836" fill="#718096" font-size="9.5" font-style="italic">Audit trail = a permanent history of important actions for accountability</text>

  <!-- 11: DASHBOARDS -->
  <rect x="1370" y="620" width="630" height="230" rx="10" fill="#fff" stroke="#e2e8f0" stroke-width="1" filter="url(#sh)"/>
  <rect x="1370" y="620" width="630" height="34" rx="10" fill="#ebf8ff"/>
  <rect x="1370" y="644" width="630" height="10" fill="#ebf8ff"/>
  <circle cx="1394" cy="637" r="11" fill="#3182ce"/><text x="1394" y="641" fill="#fff" font-size="11" font-weight="700" text-anchor="middle">11</text>
  <text x="1414" y="642" fill="#2c5282" font-size="13" font-weight="700">Dashboards / Reporting</text>
  <rect x="1390" y="660" width="280" height="110" rx="5" fill="#ebf8ff" stroke="#bee3f8" stroke-width="1"/>
  <text x="1405" y="678" fill="#2c5282" font-size="10" font-weight="700">Manager Dashboard (SSO)</text>
  <text x="1405" y="694" fill="#4a5568" font-size="10">* Team productivity trends</text>
  <text x="1405" y="708" fill="#4a5568" font-size="10">* App usage categories</text>
  <text x="1405" y="722" fill="#4a5568" font-size="10">* Online/offline indicators</text>
  <text x="1405" y="736" fill="#4a5568" font-size="10">* 7-day charts + leaderboard</text>
  <text x="1405" y="754" fill="#718096" font-size="9" font-style="italic">Own team's data only</text>
  <rect x="1690" y="660" width="140" height="110" rx="5" fill="#f0fff4" stroke="#c6f6d5" stroke-width="1"/>
  <text x="1705" y="678" fill="#276749" font-size="10" font-weight="700">Employee View</text>
  <text x="1705" y="694" fill="#4a5568" font-size="10">* Own summary</text>
  <text x="1705" y="708" fill="#4a5568" font-size="10">* Own apps</text>
  <text x="1705" y="722" fill="#4a5568" font-size="10">* Own trend</text>
  <text x="1705" y="740" fill="#718096" font-size="9" font-style="italic">Self only</text>
  <rect x="1850" y="660" width="135" height="110" rx="5" fill="#fff5f5" stroke="#feb2b2" stroke-width="1"/>
  <text x="1860" y="678" fill="#c53030" font-size="10" font-weight="700">NOT Shown:</text>
  <text x="1860" y="694" fill="#742a2a" font-size="10">[X] Typed text</text>
  <text x="1860" y="708" fill="#742a2a" font-size="10">[X] Screenshots</text>
  <text x="1860" y="722" fill="#742a2a" font-size="10">[X] Messages</text>
  <text x="1860" y="736" fill="#742a2a" font-size="10">[X] URLs/files</text>
  <text x="1860" y="754" fill="#9b2c2c" font-size="9" font-weight="600">Aggregate only</text>
  <rect x="1390" y="778" width="590" height="38" rx="4" fill="#ebf8ff" stroke="#bee3f8" stroke-width="1"/>
  <text x="1405" y="794" fill="#2c5282" font-size="10" font-weight="600">Managers see summarized patterns and trends, not raw content.</text>
  <text x="1405" y="808" fill="#718096" font-size="9.5">Reporting is aggregate and operational -- not personal surveillance or content review.</text>

  <!-- 12: COMPLIANCE SAFEGUARDS -->
  <rect x="2050" y="620" width="720" height="230" rx="10" fill="#fff" stroke="#e2e8f0" stroke-width="1" filter="url(#sh)"/>
  <rect x="2050" y="620" width="720" height="34" rx="10" fill="#faf5ff"/>
  <rect x="2050" y="644" width="720" height="10" fill="#faf5ff"/>
  <circle cx="2074" cy="637" r="11" fill="#805ad5"/><text x="2074" y="641" fill="#fff" font-size="11" font-weight="700" text-anchor="middle">12</text>
  <text x="2094" y="642" fill="#553c9a" font-size="13" font-weight="700">Compliance Safeguards</text>
  <!-- Grid of safeguards -->
  <rect x="2070" y="662" width="220" height="44" rx="4" fill="#faf5ff" stroke="#e9d8fd" stroke-width="1"/>
  <text x="2085" y="680" fill="#553c9a" font-size="10" font-weight="700">[LOCK] Privacy by Design</text>
  <text x="2085" y="696" fill="#4a5568" font-size="9.5">Built to minimize data from the start.</text>
  <rect x="2300" y="662" width="220" height="44" rx="4" fill="#faf5ff" stroke="#e9d8fd" stroke-width="1"/>
  <text x="2315" y="680" fill="#553c9a" font-size="10" font-weight="700">[MIN] Data Minimization</text>
  <text x="2315" y="696" fill="#4a5568" font-size="9.5">Only minimum needed -- nothing more.</text>
  <rect x="2530" y="662" width="220" height="44" rx="4" fill="#faf5ff" stroke="#e9d8fd" stroke-width="1"/>
  <text x="2545" y="680" fill="#553c9a" font-size="10" font-weight="700">[KEY] Least Privilege</text>
  <text x="2545" y="696" fill="#4a5568" font-size="9.5">See only what your role requires.</text>
  <rect x="2070" y="714" width="220" height="44" rx="4" fill="#faf5ff" stroke="#e9d8fd" stroke-width="1"/>
  <text x="2085" y="732" fill="#553c9a" font-size="10" font-weight="700">[LOCK] Secure Auth (SSO+MFA)</text>
  <text x="2085" y="748" fill="#4a5568" font-size="9.5">Company SSO with multi-factor.</text>
  <rect x="2300" y="714" width="220" height="44" rx="4" fill="#faf5ff" stroke="#e9d8fd" stroke-width="1"/>
  <text x="2315" y="732" fill="#553c9a" font-size="10" font-weight="700">[LOG] Audit Logging</text>
  <text x="2315" y="748" fill="#4a5568" font-size="9.5">Every action permanently recorded.</text>
  <rect x="2530" y="714" width="220" height="44" rx="4" fill="#faf5ff" stroke="#e9d8fd" stroke-width="1"/>
  <text x="2545" y="732" fill="#553c9a" font-size="10" font-weight="700">[CLOCK] Auto Retention</text>
  <text x="2545" y="748" fill="#4a5568" font-size="9.5">Data auto-deleted per policy.</text>
  <rect x="2070" y="766" width="220" height="44" rx="4" fill="#faf5ff" stroke="#e9d8fd" stroke-width="1"/>
  <text x="2085" y="784" fill="#553c9a" font-size="10" font-weight="700">[X] Restricted Capture</text>
  <text x="2085" y="800" fill="#4a5568" font-size="9.5">Content types excluded by design.</text>
  <rect x="2300" y="766" width="220" height="44" rx="4" fill="#faf5ff" stroke="#e9d8fd" stroke-width="1"/>
  <text x="2315" y="784" fill="#553c9a" font-size="10" font-weight="700">[TEAM] Team-Scoped</text>
  <text x="2315" y="800" fill="#4a5568" font-size="9.5">Cross-team access blocked + logged.</text>
  <rect x="2530" y="766" width="220" height="44" rx="4" fill="#faf5ff" stroke="#e9d8fd" stroke-width="1"/>
  <text x="2545" y="784" fill="#553c9a" font-size="10" font-weight="700">[DEL] Right to Deletion</text>
  <text x="2545" y="800" fill="#4a5568" font-size="9.5">User data deletable on request.</text>
  <rect x="2070" y="818" width="680" height="22" rx="3" fill="#f7fafc" stroke="#e2e8f0" stroke-width="1"/>
  <text x="2085" y="834" fill="#718096" font-size="9.5" font-style="italic">All safeguards enforced server-side -- cannot be bypassed by users, dashboards, or client changes.</text>

  <!-- ======================== ROW 4: LEGAL + SUMMARY ======================== -->

  <!-- 13: LEGAL NOTES -->
  <rect x="30" y="880" width="1320" height="180" rx="10" fill="#fffaf0" stroke="#f6ad55" stroke-width="2" filter="url(#sh)"/>
  <rect x="30" y="880" width="1320" height="34" rx="10" fill="url(#lg)"/>
  <circle cx="54" cy="897" r="11" fill="#fff"/><text x="54" y="902" fill="#975a16" font-size="11" font-weight="700" text-anchor="middle">13</text>
  <text x="74" y="902" fill="#fff" font-size="13" font-weight="700">Important Legal &amp; Privacy Positioning</text>
  <text x="1250" y="902" fill="#fefcbf" font-size="11">[KEY SECTION]</text>
  <text x="50" y="934" fill="#744210" font-size="12"><tspan font-weight="600">1.</tspan> The system captures <tspan font-weight="700">activity metadata</tspan> (interaction counts, app names, idle time), <tspan font-weight="700">not content</tspan> (text, screenshots, URLs, messages, files).</text>
  <text x="50" y="954" fill="#744210" font-size="12"><tspan font-weight="600">2.</tspan> Access is <tspan font-weight="700">role-limited and team-restricted</tspan>. Managers see only their own team's aggregated data.</text>
  <text x="50" y="974" fill="#744210" font-size="12"><tspan font-weight="600">3.</tspan> Sensitive content types (typed text, screenshots, emails, personal files) are <tspan font-weight="700">architecturally excluded</tspan> from collection.</text>
  <text x="50" y="994" fill="#744210" font-size="12"><tspan font-weight="600">4.</tspan> Reporting is <tspan font-weight="700">primarily aggregate and operational</tspan> -- designed for team-level work pattern visibility.</text>
  <text x="50" y="1014" fill="#744210" font-size="12"><tspan font-weight="600">5.</tspan> Data retention and access controls should be configured to <tspan font-weight="700">align with company policy and jurisdictional requirements</tspan>.</text>
  <text x="50" y="1034" fill="#744210" font-size="12"><tspan font-weight="600">6.</tspan> Final deployment should remain <tspan font-weight="700">subject to review and approval</tspan> by Legal, Privacy, HR, and Information Security teams.</text>

  <!-- 14: SUMMARY -->
  <rect x="1400" y="880" width="1370" height="180" rx="10" fill="#f0fff4" stroke="#68d391" stroke-width="2" filter="url(#sh)"/>
  <rect x="1400" y="880" width="1370" height="34" rx="10" fill="url(#sg)"/>
  <circle cx="1424" cy="897" r="11" fill="#fff"/><text x="1424" y="902" fill="#276749" font-size="11" font-weight="700" text-anchor="middle">14</text>
  <text x="1444" y="902" fill="#fff" font-size="13" font-weight="700">Summary -- What This Means in Simple Terms</text>
  <text x="1420" y="938" fill="#22543d" font-size="12"><tspan font-weight="600">[OK]</tspan> The project helps the company understand <tspan font-weight="700">work activity trends</tspan> while limiting personal data collection.</text>
  <text x="1420" y="960" fill="#22543d" font-size="12"><tspan font-weight="600">[OK]</tspan> It uses <tspan font-weight="700">secure login, encrypted storage, restricted access, and comprehensive audit records</tspan>.</text>
  <text x="1420" y="982" fill="#22543d" font-size="12"><tspan font-weight="600">[OK]</tspan> Designed for <tspan font-weight="700">controlled internal operational visibility</tspan> -- not intrusive content monitoring or surveillance.</text>
  <text x="1420" y="1004" fill="#22543d" font-size="12"><tspan font-weight="600">[OK]</tspan> All controls are <tspan font-weight="700">server-enforced, audited, and testable</tspan> -- do not rely on user behavior or client-side settings.</text>
  <text x="1420" y="1030" fill="#276749" font-size="11" font-weight="600">43+ automated security tests verify access controls, team isolation, and authentication enforcement.</text>

  <!-- ======================== DATA FLOW + GLOSSARY ======================== -->

  <!-- DATA FLOW -->
  <rect x="30" y="1090" width="2740" height="170" rx="10" fill="#fff" stroke="#e2e8f0" stroke-width="1" filter="url(#sh)"/>
  <rect x="30" y="1090" width="2740" height="30" rx="10" fill="#edf2f7"/>
  <rect x="30" y="1110" width="2740" height="10" fill="#edf2f7"/>
  <text x="1400" y="1110" fill="#4a5568" font-size="13" font-weight="700" text-anchor="middle">System Data Flow -- End to End</text>

  <rect x="60" y="1140" width="170" height="55" rx="6" fill="#faf5ff" stroke="#d6bcfa" stroke-width="1.5"/>
  <text x="145" y="1165" fill="#553c9a" font-size="11" font-weight="700" text-anchor="middle">[PC] Employee Device</text>
  <text x="145" y="1182" fill="#718096" font-size="9.5" text-anchor="middle">Company-managed</text>

  <line x1="230" y1="1168" x2="290" y2="1168" stroke="#805ad5" stroke-width="2"/>
  <polygon points="290,1163 300,1168 290,1173" fill="#805ad5"/>

  <rect x="300" y="1140" width="170" height="55" rx="6" fill="#ebf8ff" stroke="#90cdf4" stroke-width="1.5"/>
  <text x="385" y="1165" fill="#2c5282" font-size="11" font-weight="700" text-anchor="middle">[APP] Tracker Agent</text>
  <text x="385" y="1182" fill="#718096" font-size="9.5" text-anchor="middle">Metadata only</text>

  <line x1="470" y1="1168" x2="530" y2="1168" stroke="#38a169" stroke-width="2"/>
  <polygon points="530,1163 540,1168 530,1173" fill="#38a169"/>

  <rect x="540" y="1135" width="150" height="65" rx="6" fill="#f0fff4" stroke="#9ae6b4" stroke-width="1.5"/>
  <text x="615" y="1160" fill="#276749" font-size="11" font-weight="700" text-anchor="middle">[LOCK] HTTPS</text>
  <text x="615" y="1176" fill="#276749" font-size="10" text-anchor="middle">Encrypted Transit</text>
  <text x="615" y="1190" fill="#718096" font-size="9" text-anchor="middle">TLS encrypted</text>

  <line x1="690" y1="1168" x2="750" y2="1168" stroke="#3182ce" stroke-width="2"/>
  <polygon points="750,1163 760,1168 750,1173" fill="#3182ce"/>

  <rect x="760" y="1140" width="170" height="55" rx="6" fill="#ebf8ff" stroke="#90cdf4" stroke-width="1.5"/>
  <text x="845" y="1165" fill="#2c5282" font-size="11" font-weight="700" text-anchor="middle">[GEAR] Backend API</text>
  <text x="845" y="1182" fill="#718096" font-size="9.5" text-anchor="middle">Validate + Classify</text>

  <line x1="930" y1="1168" x2="990" y2="1168" stroke="#38a169" stroke-width="2"/>
  <polygon points="990,1163 1000,1168 990,1173" fill="#38a169"/>

  <rect x="1000" y="1140" width="170" height="55" rx="6" fill="#f0fff4" stroke="#9ae6b4" stroke-width="1.5"/>
  <text x="1085" y="1165" fill="#276749" font-size="11" font-weight="700" text-anchor="middle">[DB] Database</text>
  <text x="1085" y="1182" fill="#276749" font-size="9.5" text-anchor="middle">Protected Storage</text>

  <line x1="1170" y1="1168" x2="1230" y2="1168" stroke="#805ad5" stroke-width="2"/>
  <polygon points="1230,1163 1240,1168 1230,1173" fill="#805ad5"/>

  <rect x="1240" y="1140" width="170" height="55" rx="6" fill="#faf5ff" stroke="#d6bcfa" stroke-width="1.5"/>
  <text x="1325" y="1165" fill="#553c9a" font-size="11" font-weight="700" text-anchor="middle">[LOCK] Access Control</text>
  <text x="1325" y="1182" fill="#718096" font-size="9.5" text-anchor="middle">Role + Team check</text>

  <line x1="1410" y1="1168" x2="1470" y2="1168" stroke="#d69e2e" stroke-width="2"/>
  <polygon points="1470,1163 1480,1168 1470,1173" fill="#d69e2e"/>

  <rect x="1480" y="1140" width="170" height="55" rx="6" fill="#fffff0" stroke="#fefcbf" stroke-width="1.5"/>
  <text x="1565" y="1165" fill="#975a16" font-size="11" font-weight="700" text-anchor="middle">[CHART] Dashboard</text>
  <text x="1565" y="1182" fill="#718096" font-size="9.5" text-anchor="middle">Aggregated View</text>

  <line x1="1000" y1="1195" x2="1000" y2="1212" stroke="#d69e2e" stroke-width="1" stroke-dasharray="4,2"/>
  <text x="1007" y="1222" fill="#975a16" font-size="9" font-style="italic">Audit log (immutable record of all actions)</text>

  <!-- Privacy boundary line -->
  <rect x="1730" y="1135" width="1010" height="65" rx="6" fill="#fff5f5" stroke="#feb2b2" stroke-width="1.5"/>
  <text x="2235" y="1158" fill="#c53030" font-size="12" font-weight="700" text-anchor="middle">[SHIELD] PRIVACY BOUNDARY</text>
  <text x="2235" y="1176" fill="#c53030" font-size="11" text-anchor="middle">Content (typed text, screenshots, URLs, messages, files) never enters this system.</text>
  <text x="2235" y="1192" fill="#9b2c2c" font-size="10" text-anchor="middle">Only interaction counts, app names, and idle time are processed.</text>

  <!-- GLOSSARY -->
  <rect x="30" y="1280" width="2740" height="85" rx="10" fill="#fff" stroke="#e2e8f0" stroke-width="1" filter="url(#sh)"/>
  <rect x="30" y="1280" width="2740" height="26" rx="10" fill="#edf2f7"/>
  <rect x="30" y="1296" width="2740" height="10" fill="#edf2f7"/>
  <text x="1400" y="1298" fill="#4a5568" font-size="12" font-weight="700" text-anchor="middle">Glossary -- Plain-English Term Explanations</text>

  <text x="60" y="1326" fill="#2d3748" font-size="10.5"><tspan font-weight="700">Agent</tspan> -- Small app on a device</text>
  <text x="60" y="1344" fill="#2d3748" font-size="10.5"><tspan font-weight="700">API</tspan> -- Secure software endpoint</text>
  <text x="400" y="1326" fill="#2d3748" font-size="10.5"><tspan font-weight="700">SSO</tspan> -- Single Sign-On (one company login)</text>
  <text x="400" y="1344" fill="#2d3748" font-size="10.5"><tspan font-weight="700">MFA</tspan> -- Extra identity verification step</text>
  <text x="830" y="1326" fill="#2d3748" font-size="10.5"><tspan font-weight="700">Encryption</tspan> -- Scrambles data so unauthorized people cannot read it</text>
  <text x="830" y="1344" fill="#2d3748" font-size="10.5"><tspan font-weight="700">Authorization</tspan> -- Rules deciding who can access what data</text>
  <text x="1440" y="1326" fill="#2d3748" font-size="10.5"><tspan font-weight="700">Audit Trail</tspan> -- Permanent record of important actions for accountability</text>
  <text x="1440" y="1344" fill="#2d3748" font-size="10.5"><tspan font-weight="700">Retention</tspan> -- How long data is kept before automatic deletion</text>
  <text x="1960" y="1326" fill="#2d3748" font-size="10.5"><tspan font-weight="700">Row-Level Security</tspan> -- Database restricts which rows each query can see</text>
  <text x="1960" y="1344" fill="#2d3748" font-size="10.5"><tspan font-weight="700">OIDC</tspan> -- Industry standard for secure company login (used by Azure AD, Okta)</text>

  <!-- FOOTER -->
  <rect x="0" y="1380" width="2800" height="36" fill="#edf2f7"/>
  <text x="1400" y="1396" fill="#a0aec0" font-size="10" text-anchor="middle">For internal legal/compliance review -- terminology simplified for non-technical stakeholders</text>
  <text x="1400" y="1410" fill="#cbd5e0" font-size="9" text-anchor="middle">Zinnia Axion -- Workforce Activity Insights Platform -- Architecture Document v1.0 -- March 2026</text>
</svg>